PathFileType	4	(X/Y/Z)	/Users/giacomo/dev/rowing-video-analysis/sports2d_app/runs/gb8_20260203_210816/sports2d/input_Sports2D/input_Sports2D_px_person00.trc
DataRate	CameraRate	NumFrames	NumMarkers	Units	OrigDataRate	OrigDataStartFrame	OrigNumFrames
50.0	50.0	4	133	m	50.0	159	638
Frame#	Time	RHip			RKnee			RAnkle			RBigToe			RSmallToe			RHeel			LHip			LKnee			LAnkle			LBigToe			LSmallToe			LHeel			Nose			REye			LEye			REar			LEar			RShoulder			RElbow			RWrist			RThumb1			RThumb			RThumb3			RThumb4			RIndex			RIndex2			RIndex3			RIndex4			RMiddle1			RMiddle2			RMiddle3			RMiddle4			RRing1			RRing2			RRing3			RRing4			RPinky			RPinky2			RPinky3			RPinky4			LShoulder			LElbow			LWrist			LThumb1			LThumb			LThumb3			LThumb4			LIndex			LIndex2			LIndex3			LIndex4			LMiddle1			LMiddle2			LMiddle3			LMiddle4			LRing1			LRing2			LRing3			LRing4			LPinky			LPinky2			LPinky3			LPinky4			Jaw1			Jaw2			Jaw3			Jaw4			Jaw5			Jaw6			Jaw7			Jaw8			Jaw9			Jaw10			Jaw11			Jaw12			Jaw13			Jaw14			Jaw15			Jaw16			Jaw17			EyebrowR1			EyebrowR2			EyebrowR3			EyebrowR4			EyebrowR5			EyebrowL1			EyebrowL2			EyebrowL3			EyebrowL4			EyebrowL5			Nose1			Nose2			Nose3			Nose4			Nose5			Nose6			Nose7			Nose8			Nose9			REye1			REye2			REye3			REye4			REye5			REye6			LEye1			LEye2			LEye3			LEye4			LEye5			LEye6			Mouth1			Mouth2			Mouth3			Mouth4			Mouth5			Mouth6			Mouth7			Mouth8			Mouth9			Mouth10			Mouth11			Mouth12			Mouth13			Mouth14			Mouth15			Mouth16			Mouth17			Mouth18			Mouth19			Mouth20			Hip			Neck			
		X1	Y1	Z1	X2	Y2	Z2	X3	Y3	Z3	X4	Y4	Z4	X5	Y5	Z5	X6	Y6	Z6	X7	Y7	Z7	X8	Y8	Z8	X9	Y9	Z9	X10	Y10	Z10	X11	Y11	Z11	X12	Y12	Z12	X13	Y13	Z13	X14	Y14	Z14	X15	Y15	Z15	X16	Y16	Z16	X17	Y17	Z17	X18	Y18	Z18	X19	Y19	Z19	X20	Y20	Z20	X21	Y21	Z21	X22	Y22	Z22	X23	Y23	Z23	X24	Y24	Z24	X25	Y25	Z25	X26	Y26	Z26	X27	Y27	Z27	X28	Y28	Z28	X29	Y29	Z29	X30	Y30	Z30	X31	Y31	Z31	X32	Y32	Z32	X33	Y33	Z33	X34	Y34	Z34	X35	Y35	Z35	X36	Y36	Z36	X37	Y37	Z37	X38	Y38	Z38	X39	Y39	Z39	X40	Y40	Z40	X41	Y41	Z41	X42	Y42	Z42	X43	Y43	Z43	X44	Y44	Z44	X45	Y45	Z45	X46	Y46	Z46	X47	Y47	Z47	X48	Y48	Z48	X49	Y49	Z49	X50	Y50	Z50	X51	Y51	Z51	X52	Y52	Z52	X53	Y53	Z53	X54	Y54	Z54	X55	Y55	Z55	X56	Y56	Z56	X57	Y57	Z57	X58	Y58	Z58	X59	Y59	Z59	X60	Y60	Z60	X61	Y61	Z61	X62	Y62	Z62	X63	Y63	Z63	X64	Y64	Z64	X65	Y65	Z65	X66	Y66	Z66	X67	Y67	Z67	X68	Y68	Z68	X69	Y69	Z69	X70	Y70	Z70	X71	Y71	Z71	X72	Y72	Z72	X73	Y73	Z73	X74	Y74	Z74	X75	Y75	Z75	X76	Y76	Z76	X77	Y77	Z77	X78	Y78	Z78	X79	Y79	Z79	X80	Y80	Z80	X81	Y81	Z81	X82	Y82	Z82	X83	Y83	Z83	X84	Y84	Z84	X85	Y85	Z85	X86	Y86	Z86	X87	Y87	Z87	X88	Y88	Z88	X89	Y89	Z89	X90	Y90	Z90	X91	Y91	Z91	X92	Y92	Z92	X93	Y93	Z93	X94	Y94	Z94	X95	Y95	Z95	X96	Y96	Z96	X97	Y97	Z97	X98	Y98	Z98	X99	Y99	Z99	X100	Y100	Z100	X101	Y101	Z101	X102	Y102	Z102	X103	Y103	Z103	X104	Y104	Z104	X105	Y105	Z105	X106	Y106	Z106	X107	Y107	Z107	X108	Y108	Z108	X109	Y109	Z109	X110	Y110	Z110	X111	Y111	Z111	X112	Y112	Z112	X113	Y113	Z113	X114	Y114	Z114	X115	Y115	Z115	X116	Y116	Z116	X117	Y117	Z117	X118	Y118	Z118	X119	Y119	Z119	X120	Y120	Z120	X121	Y121	Z121	X122	Y122	Z122	X123	Y123	Z123	X124	Y124	Z124	X125	Y125	Z125	X126	Y126	Z126	X127	Y127	Z127	X128	Y128	Z128	X129	Y129	Z129	X130	Y130	Z130	X131	Y131	Z131	X132	Y132	Z132	X133	Y133	Z133
159	3.184992150706436	349.90358264745623	564.3351967877819	0.0	521.7600961903067	453.1568952018583	0.0	548.5381738689299	599.4496874219292	0.0	595.3394047871	592.4387556704845	0.0	579.0160595230329	594.1785415374366	0.0	549.3670577642122	616.3819705246815	0.0	363.4181001862642	553.7829984091859	0.0	537.3436956701884	443.77594227506614	0.0	544.4366670864625	578.5487130827145	0.0	587.6009652161654	577.0004772164374	0.0	583.1879717536913	562.9204652352238	0.0	551.154540611272	586.671777161217	0.0	551.5534721920266	312.3228054268361	0.0	536.333652814624	294.75695051545017	0.0	545.7470466312477	293.48859668306727	0.0	485.4937441364764	302.2972499715779	0.0	496.067703817762	301.88030664826744	0.0	490.6276379594797	379.52784123560724	0.0	637.7407790051839	435.464113250695	0.0	765.5476608301652	474.59381027029485	0.0	781.3851650798105	487.36674000039045	0.0	786.1234843696957	499.5411555161063	0.0	793.66922744597	506.79801103879106	0.0	799.7162868928109	511.6682710891005	0.0	803.0449331560364	487.60770423873385	0.0	812.9991866094362	494.701150710828	0.0	814.2933116958802	501.41538092922025	0.0	813.7289230892442	504.48529743816795	0.0	806.8033430068133	485.25348203027175	0.0	817.2517154229371	493.55995616552167	0.0	816.874971209553	498.26052129072696	0.0	813.899484829353	503.55201807843235	0.0	809.0211919153511	483.3126586350588	0.0	819.2579002805762	491.3096482728426	0.0	819.890437172348	496.0307222833792	0.0	817.0870828957292	501.5475044910724	0.0	809.1061512908078	482.89825408159373	0.0	817.503527507347	488.89512340234745	0.0	818.2857083118969	492.89983037615934	0.0	818.595200338806	497.6664165525477	0.0	483.2628554198924	362.86996522743516	0.0	554.2465695437577	457.8010571246137	0.0	645.3516538884737	488.6426755150608	0.0	665.3102538797963	496.1926188608637	0.0	680.442482648096	501.8463679435398	0.0	688.4715718793676	507.3431345527883	0.0	695.0957423828204	512.7899649622528	0.0	687.4469134627051	495.5493447760111	0.0	693.2759478942387	503.4827824471046	0.0	696.2111122679432	505.78301478921514	0.0	692.8530871184411	509.0738926724761	0.0	686.0851896542217	498.56901945079665	0.0	695.2101442273511	507.99134817568586	0.0	693.8942350184273	508.7488067651627	0.0	689.5929324137093	511.4683879187248	0.0	685.1015421820657	502.6026157951826	0.0	692.124177784623	510.71978199870046	0.0	691.807972622119	510.58478891673315	0.0	687.0938414177632	512.0968364669719	0.0	682.7480499339865	505.17873066205703	0.0	687.7694431584229	512.5247123231198	0.0	688.6972357748498	512.2257148942194	0.0	686.5070996283667	513.1516112257632	0.0	495.7631632271341	289.63324780146513	0.0	495.66257326344396	300.5566417949718	0.0	496.58657146801016	310.5291681279798	0.0	499.1907653314205	319.84855928982853	0.0	503.15813530699586	327.1457067001359	0.0	509.8370736860433	333.11698098128426	0.0	518.4856979649422	338.8319769807878	0.0	527.998796403121	343.5032897642097	0.0	537.094697525859	344.3919733161328	0.0	542.4319088162964	342.370769536811	0.0	542.7394965271492	337.1994191815559	0.0	542.6860375794937	331.20306556369246	0.0	541.9785550993395	324.3227274921487	0.0	542.4680754804203	314.6455208125119	0.0	542.4312757875413	306.5027371680893	0.0	542.1817133664887	297.1740934118877	0.0	541.6912225304613	287.5775774550176	0.0	525.4275704882563	284.2520926065502	0.0	531.9224156051765	281.75505392076246	0.0	537.496835095577	280.0245094292462	0.0	541.1759747096761	280.4599752375269	0.0	544.5613639610215	281.8814054713245	0.0	549.9427266456465	281.39167661748485	0.0	551.0773002593505	281.5110401182613	0.0	551.8088187229068	281.0395683170794	0.0	551.786466965993	281.47407225774197	0.0	550.1525044309745	282.8355550571072	0.0	546.4767785514391	291.49064861879975	0.0	549.6567665422805	298.8124799540894	0.0	552.8637582042822	304.44817739649267	0.0	553.8683780553025	309.1913291351455	0.0	543.592995767558	312.83918388537484	0.0	545.6940922046057	313.3076871798234	0.0	547.5417353380059	314.2151266570939	0.0	549.6175084065478	313.7904174631039	0.0	550.9820330876294	312.632871454189	0.0	530.4444816391161	291.84704482752306	0.0	534.5417924346151	289.6089730144279	0.0	536.9856496588715	289.3780980776671	0.0	538.5038232043372	291.5864791984467	0.0	536.6554195237525	293.4063533092894	0.0	533.3025274665735	293.4193884735415	0.0	546.0173757298164	291.08648994134296	0.0	547.3553297081199	289.1761934762719	0.0	549.2563006439085	289.1755305226975	0.0	549.0941149636302	290.6889233215166	0.0	549.063263141886	291.16250151321077	0.0	547.3921869453338	291.5079367350093	0.0	536.0057951413786	324.5433427342126	0.0	541.8961654193648	323.02551307353076	0.0	547.4739474120013	321.7567958464011	0.0	547.9988709347813	322.0780880485183	0.0	549.1475712503172	321.7394641413118	0.0	549.8670450880019	323.95903956891704	0.0	548.1092833740564	324.88477653380573	0.0	548.0131234856096	328.42372073428805	0.0	547.4650450856042	330.64091648122854	0.0	544.964876015474	331.9662579115664	0.0	541.8999666387737	330.77364996133764	0.0	539.5806003042462	328.576550581297	0.0	536.2938242626619	324.5268449251381	0.0	543.3941317624124	324.5361231890669	0.0	546.3767821792592	324.14972747537615	0.0	548.6328412447681	324.6342066624399	0.0	548.0893474336427	324.18916474342	0.0	547.1901353491653	326.5828596844888	0.0	544.6158195549559	326.35368010967454	0.0	541.8995854950617	326.4143260818154	0.0	357.2407897999851	559.8301524301389	0.0	487.03819484076797	371.832741031056	0.0
160	3.2050235478806903	345.60540984390855	564.9851029390036	0.0	521.0860214538967	454.78412211300173	0.0	551.6902052846057	598.6860523500243	0.0	602.2251142338663	594.225649030822	0.0	586.7365695287597	598.462164855229	0.0	551.8066968753595	615.4482675336374	0.0	362.93612758638295	553.830480818586	0.0	536.2188413702797	444.91703503472075	0.0	550.134979976957	579.174139114437	0.0	595.7826831777364	578.6661154749107	0.0	592.4811268806808	568.746931034037	0.0	558.1534184209769	589.3057770644152	0.0	544.8653468797276	310.77691777290164	0.0	529.9595985532894	292.9084130805876	0.0	539.2274295722307	291.71394594536434	0.0	479.6080193897149	300.2625977775298	0.0	490.67312573249734	300.0910339065654	0.0	483.39487196474727	378.53769907633995	0.0	630.0559390385802	431.8808231098104	0.0	762.2426290090593	470.08610430225946	0.0	778.1657366900583	483.0192191636112	0.0	783.1965610734089	495.61575051241243	0.0	790.6071613299756	502.9789249462071	0.0	796.3844123376842	507.80531398051755	0.0	799.6269700480614	483.39373203183726	0.0	809.5309191627622	490.39911163470185	0.0	811.0456385088901	497.4923359722775	0.0	811.0008165493675	500.51960279612547	0.0	803.4936450527772	481.1663189659276	0.0	813.580733598997	489.4384482257747	0.0	813.6371874309957	494.00606460533913	0.0	810.935624765729	499.3165807116402	0.0	805.4891436383307	479.3239269452944	0.0	815.6080702928839	486.79981842212754	0.0	816.5362316270492	491.6395689519079	0.0	814.087913174079	497.1009371950499	0.0	804.8579659365112	478.7598775667566	0.0	814.0004457045	484.33308941876953	0.0	815.2556101862713	488.0608458336027	0.0	815.5025288153411	492.65276211807696	0.0	480.16124916201863	363.52730850156814	0.0	553.5388448862171	454.1402807141795	0.0	645.4120575176817	485.85988652341206	0.0	665.7043535242758	494.01415816427385	0.0	680.949736406344	499.4530608188172	0.0	689.6521127808323	505.13296957164806	0.0	696.7487420299917	510.7193659597771	0.0	688.1672655751894	493.339302497474	0.0	694.6136489267936	501.4056066162598	0.0	697.1217699338756	504.2520045512363	0.0	693.0267556706333	507.446558143678	0.0	686.9356868602729	496.0910276864678	0.0	695.7253086695883	505.76631745704304	0.0	694.2785951047595	506.8385172293282	0.0	689.5534259951938	509.22400277060643	0.0	685.7365833546188	500.2711105208481	0.0	692.325198496847	508.3514381397147	0.0	691.866262853713	508.6063626528677	0.0	687.407565155256	509.6140089773127	0.0	683.0995854688898	502.3442225691826	0.0	688.2042691190146	510.25807569047726	0.0	689.1809062767745	509.6614591909381	0.0	686.549306005125	510.83255771770746	0.0	490.0018342636528	287.5525968279394	0.0	489.8259166152678	298.2405908995986	0.0	490.65550673729956	308.33868072713346	0.0	493.27847464547705	317.37649947177187	0.0	497.0157869558064	324.80292866043675	0.0	503.5747875798825	330.7448969702977	0.0	512.2559715456115	336.5732938815545	0.0	521.4917361360159	341.1567047523579	0.0	530.2594445487032	342.2796462341951	0.0	535.7690761457858	340.53700396324757	0.0	536.1270576539956	335.11175385496585	0.0	536.0932641259134	329.2440420637323	0.0	535.4705518784923	322.21856216770124	0.0	536.2060411411439	312.85753563536184	0.0	535.9445764643542	304.82644551471293	0.0	535.5634651045821	295.2595714250763	0.0	535.060965226772	285.2641542297354	0.0	519.3130806310148	282.16307986664793	0.0	525.5331332120774	279.63580221948973	0.0	531.1183924448051	278.067755809608	0.0	534.7878153013387	278.31028659789365	0.0	537.791354874911	279.8516090902555	0.0	542.9552134816469	279.3757627517465	0.0	544.2259888195972	279.4531641159327	0.0	544.8330980009683	279.01483039337603	0.0	544.8099431767927	279.43608410689416	0.0	543.3251621578611	280.83540792462657	0.0	539.6426774713784	289.36663215601646	0.0	542.9613655572126	296.7220470667172	0.0	546.0777554964144	302.3111789314015	0.0	547.0193306858923	306.9631719404588	0.0	536.9133730464949	310.67868067064944	0.0	539.1644631441084	311.1599321191272	0.0	541.0118818640486	312.2102699981475	0.0	542.9254269719717	311.5204869918752	0.0	544.2892081219921	310.5628449775266	0.0	523.9726883398522	289.8316812683782	0.0	528.1703376946743	287.43996765308447	0.0	530.6849763935525	287.4489022211044	0.0	531.8990612253755	289.47972383449746	0.0	530.0461974604347	291.2519367572388	0.0	526.9564252642673	291.22123611956266	0.0	539.2205308721277	289.1891961860021	0.0	540.5726708814624	287.2606121597032	0.0	542.4637691492266	287.2594653234527	0.0	542.2572130250657	288.7248433842976	0.0	542.1312792483354	289.15448243752314	0.0	540.5939310985816	289.3650551582814	0.0	529.7460323021786	322.4722249807641	0.0	535.5218406468695	320.7429811325407	0.0	541.0493951882146	319.54193732718295	0.0	541.499781446297	319.9394067411159	0.0	542.448530234408	319.51727964200467	0.0	543.2584096576445	321.8144986272035	0.0	541.500328651153	322.61591320773965	0.0	541.4870822862409	326.4740078885451	0.0	540.8647060355795	328.7384806617833	0.0	538.3775669763428	329.85850051033003	0.0	535.277561585902	328.5185307510397	0.0	533.2213170933734	326.30908646454935	0.0	529.9341263911457	322.35993937966884	0.0	537.1895332154043	322.384710836526	0.0	539.7293069932709	322.1422230902229	0.0	541.839298538706	322.3936416434727	0.0	541.5141416667448	322.2886479163953	0.0	540.3555722939457	324.6258612458738	0.0	537.8489985313498	324.3182897332589	0.0	535.2922612907114	324.343508274375	0.0	355.67334523683587	559.8797098221183	0.0	481.81657852205916	371.420921027714	0.0
161	3.2250549450549446	340.904936312542	565.4210627912928	0.0	520.8431444341905	457.32357085335445	0.0	555.3281429185969	598.2847961036471	0.0	611.2250740159832	596.0622476528789	0.0	596.1715928146817	603.024225721778	0.0	554.8362318668894	615.0806687917024	0.0	361.63372911887893	553.7587283057558	0.0	534.9622135731462	446.8426663130424	0.0	556.5945828721232	579.9805928776681	0.0	608.2614683313491	581.2397325895483	0.0	605.3407021189046	574.3718933623339	0.0	566.2298625795852	591.7028724923196	0.0	537.7340111659722	309.0884508698213	0.0	523.1163966206301	291.04233020192214	0.0	532.3238771541364	289.81953818079944	0.0	473.4750273562105	297.87044933366764	0.0	485.08258213487744	298.01125442649055	0.0	475.95188794852476	377.402687273957	0.0	621.8173121492123	428.6894957680238	0.0	758.5609140749976	464.9264403773784	0.0	774.3068587151275	477.8659378376759	0.0	779.6688594818459	490.5664421390023	0.0	787.2366484839343	498.1433918433461	0.0	793.0565448925227	502.82860537892776	0.0	795.4660689702717	478.66556331005813	0.0	805.2671178441888	485.7383000363304	0.0	807.0372708579541	493.03131929946693	0.0	807.4870822821009	496.0734862265934	0.0	799.4628515810841	476.88313716736747	0.0	809.0873650782946	485.1563308918116	0.0	809.4375331019874	489.6265235089261	0.0	807.0396299635669	494.83258049444044	0.0	801.3295435167407	475.10838245603526	0.0	811.0135792578601	482.24597090104857	0.0	812.1703777886767	487.1302950709686	0.0	810.131305358958	492.42673632967654	0.0	800.189802719074	474.33817726502673	0.0	809.515846396541	479.5733396331742	0.0	811.1037165289971	483.1726705990658	0.0	811.4646968880154	487.47460708935176	0.0	476.6786194702287	364.31233282834364	0.0	553.005836083463	450.0157193277105	0.0	645.2147773099761	483.05844519776883	0.0	665.9020671066747	491.608774176791	0.0	681.2113499505347	496.7243011236604	0.0	690.8228620925491	502.6585628481375	0.0	698.172132883636	508.4382212556477	0.0	688.4413349887471	491.03413860480725	0.0	696.1680815151922	498.9001782526006	0.0	698.1646291163046	502.2801543203549	0.0	693.1166694742067	505.2368273663108	0.0	687.4515792958196	493.85033166077096	0.0	695.8765358747258	503.2367490932936	0.0	694.6671442693638	504.4172782020374	0.0	689.8592189495085	506.4916941617696	0.0	686.2632431844628	498.10705559805245	0.0	692.0987811061575	505.82259462047	0.0	691.4702339199415	506.38712836613354	0.0	687.6786874890992	507.0198995821897	0.0	683.2003503381533	499.7729543526866	0.0	688.2891714426428	507.9490943431204	0.0	689.3387840161563	507.0485700850495	0.0	686.4080886735757	508.3672758373817	0.0	483.866129028316	285.4310010105712	0.0	483.7129218628148	295.89581169116997	0.0	484.360733796642	305.94108281689057	0.0	486.93741737705034	314.7876622090278	0.0	490.40458183254043	322.3872074358005	0.0	496.81499938835447	328.3462433314525	0.0	505.54945692945745	334.38836357461463	0.0	514.5288038801768	338.82606450898595	0.0	522.9602093259856	340.0145962570626	0.0	528.5663499127301	338.51542582402493	0.0	529.1420849633707	332.92081501513826	0.0	529.1864818055711	327.33245471214644	0.0	528.5629429079492	320.03545499185276	0.0	529.6271938199727	311.1317799697593	0.0	529.1265872117282	302.957325351086	0.0	528.6803522352317	293.1702185315614	0.0	528.1039676639997	283.06005337666755	0.0	512.7392533945538	280.11117776058535	0.0	518.6612158055416	277.4404448620641	0.0	524.2211265276916	276.163993856197	0.0	527.9011879137295	276.3093721065036	0.0	530.5085275206518	277.8731591472382	0.0	535.4949482127905	277.47476543654125	0.0	536.864600681606	277.4113972014387	0.0	537.3779075790906	276.97717716091006	0.0	537.3585495378686	277.4460239816157	0.0	536.0101018789877	278.8472474369396	0.0	532.3334320668226	287.3388075002591	0.0	535.7710502883466	294.48592961022894	0.0	538.7321865871461	300.06462418043907	0.0	539.7303787335318	304.65855315853406	0.0	529.8072700294608	308.4409624585962	0.0	532.1357514961004	308.94389664951433	0.0	533.9779179108284	310.10332731459704	0.0	535.7958839538336	309.1348811571559	0.0	537.1942902526266	308.5105114865411	0.0	517.1820959901402	287.81217349992573	0.0	521.3185709140924	285.34466018084214	0.0	523.9820468600271	285.40783907352824	0.0	524.9363874127946	287.4950246274912	0.0	523.0801235092467	289.09922149335233	0.0	520.2428088788291	289.06515664075476	0.0	531.9769916039075	287.2012625344457	0.0	533.3741659301302	285.3200477031707	0.0	535.2235005242879	285.31866146768266	0.0	534.9062978811769	286.81096667207754	0.0	534.6211791027015	287.1414447962701	0.0	533.3825591554474	287.2555742172179	0.0	522.9793477210466	320.37047310501424	0.0	528.6532324545775	318.5814775099038	0.0	534.038270258975	317.3683761569166	0.0	534.531920885328	317.71857890894324	0.0	535.3381185771995	317.34845099283694	0.0	536.0596899378048	319.5853341008622	0.0	534.420182356266	320.46281560239885	0.0	534.4411853578026	324.5688040594248	0.0	533.8141805102272	326.7743899597205	0.0	531.3961679089974	327.6000507569502	0.0	528.2127587731662	326.2793458542125	0.0	526.3380931314814	324.1540606013866	0.0	523.1680077244498	320.101804423042	0.0	530.4587235010765	320.1440940117118	0.0	532.7059639888957	320.03121318593577	0.0	534.6463498334327	320.1074419413674	0.0	534.516540098643	320.3072917694422	0.0	533.0906402145446	322.705117065518	0.0	530.668547039677	322.243940555126	0.0	528.2388214027598	322.2200706760345	0.0	353.5645169411285	559.7854559320541	0.0	476.3207791194723	371.01965037944166	0.0
162	3.245086342229199	336.02845303337375	565.9741059561892	0.0	521.2363955615452	460.5497159539585	0.0	559.7173112558767	598.4892798368626	0.0	621.7334549549175	597.5424972807853	0.0	606.8415023497922	607.1804285171405	0.0	558.8717190653829	615.5605266566781	0.0	359.3512778653169	554.0100719692822	0.0	533.6152719862688	449.4333490623365	0.0	563.64313204971	581.0154504797981	0.0	624.7075755661853	584.3919899905894	0.0	620.4581809871364	579.5998826435005	0.0	575.4033943747181	593.8251522176679	0.0	530.5223855921525	307.43930734428824	0.0	516.143913286388	289.4248328200241	0.0	525.2569927988189	288.12073133013047	0.0	467.24929842274383	295.6087144742506	0.0	479.26441202648516	296.0657330805728	0.0	469.5515912394045	376.5232478792708	0.0	614.1235549214938	426.2626805967066	0.0	754.7461990760812	459.68897894471735	0.0	770.1983941271593	472.45218876000484	0.0	775.8698852246918	484.95611551685744	0.0	783.9325484273292	492.55091434201336	0.0	790.1174712926805	496.9923313691356	0.0	791.072936076586	473.6460620402246	0.0	800.7898145618027	480.819815880824	0.0	802.841210985988	488.0114789217524	0.0	803.6600074715697	491.2045793467724	0.0	795.0890635514232	472.41000854838063	0.0	804.4827058348302	480.6186543399474	0.0	804.958638626445	485.0715922062263	0.0	802.8524510700911	490.1164372963944	0.0	796.9039814306027	470.8564090675098	0.0	806.0952398433639	477.8076742784006	0.0	807.4204454150998	482.5779344358806	0.0	805.6624864827891	487.61779466792535	0.0	795.5100603096646	469.8462785446203	0.0	804.5943984768929	474.9350401158575	0.0	806.3487060767698	478.4876971958691	0.0	806.878806725604	482.42316695850303	0.0	472.6619831443742	365.18560944655565	0.0	552.6389815774919	446.0876696782355	0.0	645.263255517507	480.3937370498718	0.0	666.3148743237414	489.14505451940886	0.0	681.5848562361865	493.89311081893476	0.0	692.2564606781361	500.0190502967527	0.0	699.3971836995968	505.80077390810806	0.0	688.4712903686848	488.76311974020297	0.0	697.9052886372654	496.05406344151226	0.0	699.415760201274	499.75601742473776	0.0	693.3978949956742	502.41265295372733	0.0	687.87803267092	491.8363912870125	0.0	696.0293831146872	500.39751013248355	0.0	695.3453409765141	501.4954813535154	0.0	690.833043627325	503.2562444123261	0.0	687.0036455777591	495.984470882021	0.0	691.9131142455602	503.1106113521659	0.0	691.1156812129897	503.7456128992495	0.0	688.1742651003791	504.1845535448265	0.0	683.5554884966929	497.4185793349446	0.0	688.519969977003	505.4067349759194	0.0	689.5974299648282	504.21519063695797	0.0	686.6501691647251	505.4835469525577	0.0	477.5206406617489	283.61897629788086	0.0	477.43197003005474	293.9758020206411	0.0	477.931251657124	303.79806297078807	0.0	480.43834859203315	312.65744841625497	0.0	483.61224774412665	320.3905863882536	0.0	489.8982685291219	326.3680735366456	0.0	498.66646138977654	332.61072191456356	0.0	507.50230842307747	336.903781115757	0.0	515.6366807412707	338.02978069261394	0.0	521.2345919055824	336.6698918742358	0.0	522.1139618768874	330.94971528846963	0.0	522.3149401542184	325.7410954495709	0.0	521.5736911175251	318.17704774511355	0.0	522.9779967392079	309.6592938757372	0.0	522.1476727849725	301.21931452826453	0.0	521.7370356762523	291.32960548775566	0.0	521.0536701625103	281.3780481504996	0.0	505.891877662044	278.4194264359118	0.0	511.58936237647265	275.56645665686057	0.0	517.0637982733617	274.5592761068017	0.0	520.7505460045496	274.74859672679906	0.0	523.1155184757914	276.2428399559063	0.0	527.9329282998575	275.9727993912958	0.0	529.3000640660493	275.6698968309153	0.0	529.7935238929564	275.2540520072458	0.0	529.7998870083882	275.79485283249306	0.0	528.5156994823597	277.1898299084533	0.0	524.9285885546836	285.74492072182494	0.0	528.3573700247106	292.4924121845116	0.0	531.1729480614449	298.06169384666356	0.0	532.3428418346199	302.63288775704325	0.0	522.63468171827	306.5348960054634	0.0	524.8890498219382	307.01631471410866	0.0	526.7224976060953	308.1859096499688	0.0	528.5337905356743	307.093464817157	0.0	530.0502314337676	306.7197464586014	0.0	510.3691061091446	286.1167304426945	0.0	514.3055953077279	283.63631215950585	0.0	517.0553208740056	283.58623239359696	0.0	517.9238583908764	285.9145130183153	0.0	516.0677867217214	287.26937238233916	0.0	513.3246217426248	287.2472006078477	0.0	524.5549109951806	285.44573413878663	0.0	526.0776126436145	283.6746841983401	0.0	527.8350531295803	283.6740570734357	0.0	527.4234394343604	285.2111718354643	0.0	526.9746221198435	285.39916186477944	0.0	526.0765548337846	285.5213882654827	0.0	515.9969957921764	318.5870115592077	0.0	521.5949426024906	316.8767588689357	0.0	526.7686757485894	315.5787044507928	0.0	527.4644461484137	315.8247432583675	0.0	528.1549125691301	315.5931997720196	0.0	528.6613422677607	317.6834045018991	0.0	527.1866448679637	318.7464202423255	0.0	527.212440182259	322.9766424545038	0.0	526.6540243715233	325.0474418090092	0.0	524.3958837213855	325.60360398356687	0.0	521.0596526198321	324.53996357813736	0.0	519.2704081855427	322.44058649574424	0.0	516.3414321722374	318.1513558881124	0.0	523.4554355873436	318.1989980272237	0.0	525.6934121122779	318.1617777086253	0.0	527.4325499806984	318.1435391526225	0.0	527.4191948956815	318.5647214182549	0.0	525.8227032051592	321.08449467938766	0.0	523.3979287441872	320.5202458580239	0.0	521.0840638853842	320.4040587012587	0.0	350.3968880535541	560.0201814322083	0.0	471.0988240254645	370.8800132339978	0.0
